<svg id="icon" viewBox="0 0 1779 140" xmlns="http://www.w3.org/2000/svg"><path d="M1779 30c-56.254 0-56.254 80-112.507 80-56.254 0-56.254-80-112.508-80-56.25 0-56.25 80-112.502 80-56.248 0-56.248-80-112.498-80-56.25 0-56.25 80-112.5 80s-56.25-80-112.5-80c-56.249 0-56.249 80-112.501 80-56.247 0-56.247-80-112.495-80-56.249 0-56.249 80-112.5 80-56.248 0-56.248-80-112.496-80-56.249 0-56.249 80-112.499 80-56.25 0-56.25-80-112.5-80-56.249 0-56.249 80-112.499 80-56.25 0-56.25-80-112.498-80-56.249 0-55.607 79.171-112.497 80-43.04-2.413-50.878-39.715-70.425-58.61" stroke="#FFD91A" stroke-width="60" fill="none" fill-rule="evenodd"/></svg>
